
	<svg xmlns="http://www.w3.org/2000/svg" xmlns:xlink="http://www.w3.org/1999/xlink" version="1.1" width="128" height="128" viewBox="0 0 100 100">


		<defs>
			<g id="background">
<path fill="url(#background-gradient)" stroke="none" d=" M 99.75 45.3 Q 101.75 24.65 88.5 11.35 77.1 0 59.45 0 48.45 0 37.6 4.7 26.75 9.5 18.2 18.1 2.25 34.05 0.25 54.7 -1.7 75.35 11.5 88.55 22.95 100 40.5 100 51.5 100 62.4 95.2 73.2 90.4 81.75 81.8 97.75 65.85 99.75 45.3 M 85.35 14.6 Q 97.25 26.45 95.25 45.2 93.3 64.05 78.65 78.7 70.65 86.75 60.6 91.2 50.65 95.55 40.5 95.55 25 95.55 14.6 85.4 2.75 73.55 4.7 54.7 6.7 35.95 21.3 21.35 29.35 13.3 39.4 8.95 49.3 4.45 59.45 4.45 75.2 4.45 85.35 14.6 Z"/>
</g><mask id="mask">
<path fill="#FFFFFF" stroke="none" d=" M 95.25 45.2 Q 97.25 26.45 85.35 14.6 75.2 4.45 59.45 4.45 49.3 4.45 39.4 8.95 29.35 13.3 21.3 21.35 6.7 35.95 4.7 54.7 2.75 73.55 14.6 85.4 25 95.55 40.5 95.55 50.65 95.55 60.6 91.2 70.65 86.75 78.65 78.7 93.3 64.05 95.25 45.2 Z"/>
</mask>
			
	<linearGradient id="background-gradient" x1="0" y1="0" y2="1" x2="0" >
		<stop stop-color="#FFFFFF" offset="0%"/>
		<stop stop-color="#FFFFFF" offset="100%"/>
	</linearGradient>

			
			
			<g transform="scale(0.3781805255725999) translate(-17.788999557495117 -17.788002014160156)" id="picture">
    <path fill="#fff" d="M282.16 46.378c-.252-3.412-3.076-6.114-6.559-6.114H24.4c-3.48 0-6.304 2.697-6.558 6.114l-.053 169.728c0 3.65 2.962 6.61 6.61 6.61h251.203c3.65 0 6.611-2.96 6.611-6.61l-.053-169.728zm-10.525 144.608H28.365V50.84h243.27v140.145zm-79.327 63.461c-10.577-2.644-13.221-10.576-13.221-21.153v-2.645h-58.174v2.645c0 10.577-2.644 18.51-13.22 21.153-2.566.64-2.645 5.289 0 5.289h84.615c2.644 0 2.565-4.649 0-5.289z"/>
    <path fill="#A0D58A" d="M239.747 108.645h-16.154c-2.394 0-4.787 1.795-5.984 4.188l-3.59 12.564-14.359-45.471c-.598-2.394-2.992-4.189-5.385-4.189s-4.786 1.197-5.983 3.59l-23.933 50.857L150 103.858c-1.196-1.795-3.589-2.991-5.982-2.991s-4.188 1.795-5.385 4.188L118.888 160.1 99.143 60.18c-.598-2.393-2.991-4.786-5.385-4.786s-5.384 1.196-5.983 3.59l-19.744 49.66h-7.778c-3.59 0-5.983 2.393-5.983 5.983s2.393 5.983 5.983 5.983h11.966c2.393 0 4.787-1.795 5.385-3.59l13.761-35.3 21.54 100.516c.598 2.992 2.991 4.787 5.384 4.787h.599c2.393 0 4.786-1.795 5.384-4.188l22.736-61.627 13.762 25.13c1.196 1.794 2.991 3.59 5.384 2.991 2.394 0 4.189-1.197 5.385-3.59l22.138-47.267 15.556 49.66c.598 2.394 2.992 4.189 5.983 4.189 2.393 0 4.787-1.795 5.385-4.189l7.778-27.522h11.368c3.59 0 5.983-2.393 5.983-5.983s-2.393-5.983-5.983-5.983z"/>
</g>
			
		</defs>

		

			<use xlink:href="#background" fill="url(#background-gradient)" />

		

			<g mask="url(#mask)">
				<g transform="
				        translate(
                                50 50
)
                            translate(0 0)  scale(0.6000000000000001)  
                            translate(
                                -50 -50
)">
						<use xlink:href="#picture"   />
				</g>
			</g>

		



	</svg>
